<svg xmlns="http://www.w3.org/2000/svg" viewBox="0 0 135.06 100.51" xmlns:v="https://vecta.io/nano"><path d="M24.16 51.01C13.46 50.99 3.3 42.69.93 30.76-1.43 18.93 4.84 7.13 15.99 2.43c11.22-4.72 24.2-.82 31.01 9.36l7.66 11.6c1.28 1.86 1.31 3.45-.02 5.26-3.42 4.68-6.52 9.61-10.17 14.08-4.77 5.85-11.22 8.42-20.31 8.28z" fill="#f49918"/><path d="M24.16 51.01c9.09.15 15.54-2.43 20.31-8.26 3.66-4.48 6.76-9.41 10.17-14.08 1.33-1.82 1.3-3.41.02-5.26-1.8-2.6-3.51-5.27-5.24-7.92C35.93 53.45 3.77 36.92 2.74 36.38c3.98 8.83 12.5 14.61 21.42 14.63z" fill="#e0871e"/><path d="M14.87 56.61c-.82-1.14.12-2.71 1.51-2.54 4.71.58 8.8 1.27 12.8.9 9.99-.93 17.21-6.61 22.7-14.92 5.88-8.9 11.73-17.87 18.16-26.38 11.04-14.62 33.14-14.23 43.69.76l20.36 29.06c.88 1.25-.33 2.91-1.79 2.46h0c-12.07-3.71-24.74.89-31.85 11.23l-22.53 31.8c-8.97 12.37-27.35 14.27-37.32 2.63-9.32-10.86-17.16-22.98-25.73-35z" fill="#e63a22"/><path d="M16.38 54.05c-1.4-.17-2.33 1.4-1.51 2.54 8.57 12.03 16.41 24.14 25.72 35 9.44 11.01 26.39 9.9 35.79-.73-31.38 9.8-47.2-35.91-47.2-35.91-4 .37-8.08-.32-12.8-.9z" fill="#cd2f1f"/></svg>