<svg xmlns="http://www.w3.org/2000/svg" viewBox="0 0 276.26 150.47" xmlns:v="https://vecta.io/nano"><path d="M214.93 26.3c.13 12.23-9.53 21.89-21.99 21.97-12.31.08-22.11-9.54-22.24-21.84-.13-12.68 9.35-22.41 21.89-22.47 12.96-.06 22.2 9.18 22.34 22.34z" fill="#47266a"/><path d="M106.4 112.68l-1.3-3.45s1.8-7.75 11.38-14.17 5.49 14.9 5.49 14.9l-15.36 2.72h-.21z" fill="#991f60"/><path d="M29.43 93.19C18.74 93.16 8.58 84.87 6.2 72.94 3.84 61.1 10.11 49.31 21.26 44.61c11.22-4.73 24.21-.82 31.01 9.36l7.66 11.6c1.28 1.86 1.31 3.45-.02 5.26-3.42 4.68-6.52 9.61-10.17 14.08-4.76 5.84-11.22 8.42-20.31 8.28z" fill="#f49918"/><path d="M29.43 93.19c9.09.15 15.54-2.43 20.31-8.26 3.66-4.48 6.76-9.41 10.17-14.08 1.33-1.82 1.3-3.41.02-5.26-1.8-2.6-3.51-5.27-5.24-7.92C41.21 95.63 9.05 79.1 8.02 78.56c3.98 8.83 12.5 14.61 21.41 14.63z" fill="#e0871e"/><path d="M20.15 98.79c-.82-1.14.12-2.71 1.51-2.54 4.71.58 8.8 1.27 12.8.9 9.99-.93 17.21-6.61 22.7-14.92 5.88-8.9 11.73-17.87 18.16-26.38 11.04-14.63 33.13-14.23 43.68.75l20.36 29.06c.88 1.25-.33 2.91-1.79 2.46h0c-12.07-3.71-24.74.89-31.85 11.23l-22.53 31.8c-8.97 12.37-27.35 14.27-37.32 2.63-9.31-10.85-17.16-22.97-25.72-34.99z" fill="#e63a22"/><path d="M21.66 96.23c-1.4-.17-2.33 1.4-1.51 2.54 8.57 12.03 16.41 24.14 25.72 35 9.44 11.01 26.39 9.9 35.79-.73-31.38 9.8-47.2-35.91-47.2-35.91-4 .37-8.09-.32-12.8-.9z" fill="#cd2f1f"/><path d="M168.97 98.08c-5.3-.29-10.04-.44-14.66-1.22-6.7-1.14-13.22-3.34-19.89-4.72-10.19-2.12-18.52 1.25-24.86 9.42-.22.28-.38.56-.51.83-.31.32-.62.66-.93 1.08-7.39 9.85-3.94 23.35 5.33 31.61a23.63 23.63 0 0 0 9.91 5.27c7.23 1.85 15.48.43 21.39-4.65.22-.13.43-.29.62-.49.14-.15.26-.3.4-.45.04-.04.08-.07.11-.1 2.09-2.08 3.49-3.83 4.99-5.8 7.08-8.69 13.22-18.26 19.73-27.43.97-1.36.04-3.26-1.63-3.35z" fill="#991f60"/><path d="M148.99 95.75h0c-4.86-1.15-9.68-2.6-14.57-3.62-10.19-2.12-18.52 1.25-24.86 9.42-.22.28-.38.56-.51.83-.31.32-.62.66-.93 1.08-6.19 8.26-4.77 19.08 1.32 27.24a30.11 30.11 0 0 0 4.01 4.38c5.33-34.28 35.54-39.33 35.54-39.33z" fill="#831d57"/><path d="M166.87 92.97c-2.73.47-5.52.52-8.23-.04-6.66-1.38-11.98-5.09-16.21-10.81-2.68-3.61-5.07-7.43-7.68-11.09-1.38-1.94-1.41-3.68.02-5.62 3.13-4.24 5.98-8.69 9.25-12.81 6.48-8.17 17.3-10.97 27.53-7.39 9.34 3.26 16.18 12.64 16.5 22.63.34 10.59-5.54 19.96-15.22 23.7-1.89.72-3.92 1.08-5.96 1.43z" fill="#582a77"/><path d="M134.77 65.41c-1.43 1.94-1.4 3.68-.02 5.62 2.61 3.66 5 7.48 7.68 11.09 4.24 5.72 9.55 9.43 16.21 10.81 2.71.56 5.51.51 8.23.04 2.04-.35 4.07-.71 5.96-1.44 5.12-1.98 9.15-5.53 11.79-10-34.76 12.06-40.28-29.32-40.28-29.32h0l-.33.38c-3.26 4.13-6.12 8.58-9.24 12.82z" fill="#48266b"/><path d="M213.33 29.32c.11 10.22-7.97 18.29-18.38 18.36-10.29.07-18.48-7.98-18.59-18.25-.11-10.6 7.81-18.73 18.3-18.78 10.83-.05 18.55 7.67 18.67 18.67z" fill="#582a77"/><path d="M223.9 117.32c1.01.43 1.36 1.7.71 2.58-3.76 5.14-6.89 9.9-10.7 14.03-8.77 9.5-23.63 10.2-33.59 2.06-10.09-8.24-12.33-22.65-5.03-33.31 4.07-5.94 8.37-11.72 12.6-17.54l.39-.53c.9-1.23 2.75-1.18 3.58.1 1.76 2.69 3.42 5.17 4.9 7.76 5.29 9.28 11.21 17.92 21.48 22.41l5.66 2.44z" fill="#1099d6"/><path d="M269.44 69.36c-4.08-15.34-17.59-25.85-36.84-26.02-6.75.03-15.64 3.45-22.41 11.03-5.55 6.23-10.48 13.02-15.5 19.71-.76 1.01-1.22 3.21-.65 4.1 5.27 8.2 9.97 16.99 16.45 24.13 11.06 12.19 28.7 14.23 42.43 6.35 13.88-7.96 20.6-23.96 16.52-39.3zm-28.88 31.38c-9.35.06-16.79-7.33-16.89-16.77-.1-9.74 7.1-17.21 16.62-17.25 9.84-.05 16.85 7.05 16.96 17.16.11 9.39-7.23 16.8-16.69 16.86z" fill="#1b4291"/><path d="M223.89 117.14l-5.65-2.43c-10.27-4.49-16.19-13.13-21.48-22.41-1.48-2.59-3.14-5.07-4.9-7.76-.83-1.28-2.69-1.33-3.58-.1l-.39.53-12.6 17.54c-3.3 4.82-4.63 10.41-4.19 15.85.48-1.09 17.54-39.08 46.18 11.38 2.43-3.11 4.73-6.47 7.33-10.02a1.72 1.72 0 0 0-.72-2.58z" fill="#1888c3"/><path d="M232.62 43.34c-6.75.03-15.64 3.45-22.41 11.03-5.55 6.23-10.48 13.02-15.5 19.71-.76 1.01-1.22 3.21-.65 4.1l9.29 14.77 1.43.38s31.39-55.9 65.82-16.06c-.08-2.63-.46-5.28-1.16-7.91-4.06-15.34-17.57-25.85-36.82-26.02zm5.25 22.32c-11.22.05-19.7 8.75-19.58 20.1.11 10.99 8.88 19.6 19.89 19.53 11.14-.07 19.78-8.7 19.67-19.64-.13-11.78-8.39-20.05-19.98-19.99zm2.69 35.23c-9.35.06-16.79-7.33-16.89-16.77-.1-9.74 7.1-17.21 16.62-17.25 9.84-.05 16.85 7.05 16.96 17.16.11 9.38-7.23 16.8-16.69 16.86z" fill="#213c7d"/></svg>