<svg xmlns="http://www.w3.org/2000/svg" xmlns:xlink="http://www.w3.org/1999/xlink" viewBox="0 0 268.6 21.79" xmlns:v="https://vecta.io/nano"><g fill="#213c7d"><use xlink:href="#B"/><path d="M152.82 12.52c-.17-.97.42-2.07-.79-2.89-.36-.24-.39-1.81-.04-2.09 1.26-.97.77-2.2.79-3.32.02-1.09.3-1.49 1.39-1.01.33.15.72.22 1.09.25 1.04.08 1.36.66 1.22 1.62-.17 1.16.05 1.96 1.51 1.78.59-.07 1.07.22.89.9-.2.78.32 2.14-.96 2.15-1.83.02-1.47 1.16-1.44 2.18.03 1.21.9 1.26 1.8 1.18.38-.03.84-.12.87.41.04.69.11 1.48-.46 1.98-1.16 1.01-3.88 1.04-4.88.31-1.3-.96-.85-2.26-.99-3.45zM5.05 10.57l.08.39a2.47 2.47 0 0 0 .53 1.09c.8.97.88.87 1.66-.12.72-1.08.71-2.31.6-3.51-.12-1.28.41-1.61 1.6-1.59 1.16.02 1.77.08 1.94 1.59.32 2.81-1 4.85-2.56 6.85-.97 1.26-3.28 1.17-4.52.08-.64-.56-1-1.23-1.54-2-1.45-2.05-1.46-3.8-1.39-5.88 0-.64.43-.87 1.03-.83.28.02.55.08.83.11 1.6.15 1.6.17 1.62 1.75l.12 2.07zm58.23-8.26c2.04 0 2.03 0 1.87 2.02-.27 3.56-.4 7.12-.03 10.68.08.75-.13 1.16-.96 1.16-3.5.01-3.26.37-3-3.01.22-2.91.19-5.82.09-8.72-.07-2.13-.12-2.13 2.03-2.13z"/><use xlink:href="#C"/></g><path d="M162.16 15.99c-2.08 0-2.07 0-1.85-2.09.21-1.92.19-3.84.01-5.76-.09-.95.1-1.34 1.17-1.33 2.93.05 2.91.01 2.66 2.93-.11 1.26-.06 2.53.1 3.79.32 2.46.3 2.47-2.09 2.46z" fill="#6a6a6a"/><path d="M83.63 6.86c2 0 2.04.01 1.81 2-.22 1.93-.05 3.84.12 5.74.09 1.02-.2 1.45-1.29 1.41-2.9-.11-3.27.52-2.5-2.9.31-1.37.19-2.81.04-4.2-.23-2.06-.28-2.05 1.82-2.05z" fill="#6b6b6b"/><path d="M31.91 4.24c.08-1.33.9-1.97 2.08-1.89 1.09.07 1.88.91 1.75 1.95-.15 1.19-1.06 1.47-2.06 1.4-1.03-.07-1.78-.56-1.77-1.46z" fill="#213c7d"/><path d="M83.46 2.37c1.22.01 1.89.66 1.84 1.8-.05 1.23-.84 1.56-2.06 1.57" fill="#6a6a69"/><g fill="#213c7d"><use xlink:href="#D"/><path d="M110.93 6.45c-2.58-.36-5.07.97-5.74 3.91-.64 2.76 1.1 6.18 5.13 6.14.6-.01 1.19-.14 1.74-.38.01 0 .02-.01.02-.01 1.13-.48 2.1-1.32 2.61-2.45a5.28 5.28 0 0 0 .44-1.66c.29-2.72-1.46-5.16-4.2-5.55zm-.75 6.88c-1.12.01-2-.81-1.99-1.87 0-1.03.82-1.82 1.89-1.84 1.14-.02 1.99.78 1.98 1.88-.01 1.01-.84 1.82-1.88 1.83z"/><use xlink:href="#D" x="-24.97" y="-0.03"/><use xlink:href="#E"/><path d="M57.92 7.24c-.8-.7-1.95-1.09-3.15-.71-1.86.59-1.86.58-1.68-1.38l.07-.56c.48-2.77.48-2.77-2.33-2.46-.03 0-.08 0-.14.01-.39.05-.88.21-1.14.5-.3.33-.29.78-.28 1.03l.11 5.41.09 2.35c-.04 2.48-.5 3.7.19 4.31.11.1.21.32 1.23.29 1.42-.04 1.86-.93 3.4-.15.81.41 2.16.57 2.87.26 2.88-1.25 3.64-6.38.76-8.9zm-3.31 6.25c-1.12.02-2-.87-1.99-2.01 0-1.1.82-1.95 1.89-1.98 1.14-.03 1.99.84 1.98 2.02-.01 1.09-.84 1.95-1.88 1.97z"/></g><g fill="#6f6f6e"><path d="M73.4 16.22s.78-.07 1.32-.56m-6.78-7.73l-.07.52-1.53 1.97h-.23s.3-1.74 1.48-2.66.35.17.35.17z"/><path d="M67.44 8.7l-.28-.39-.04-.1s.33-.6 1.16-1.07.42 1.15.42 1.15l-1.26.41z"/></g><g fill="#213c7d"><path d="M72.1 12.91c3.34-.12 3.87-1.33 2.89-3.64-.02-.04-.03-.08-.05-.12 0-.01-.01-.02-.01-.02l-.05-.11c-.02-.04-.05-.08-.08-.12-.82-1.44-2.02-1.95-2.02-1.95h0c-1.08-.61-2.4-.78-3.62-.3-.02.01-.03.01-.04.01-1.02.37-1.67.95-2.1 1.51-.02.02-.03.03-.04.05s-.02.03-.03.05a2.22 2.22 0 0 0-.15.23l-.06.09c0 .01-.01.02-.01.02-1.03 1.76-.77 3.82-.77 3.82h0a3.93 3.93 0 0 0 .67 1.89c1.49 2.13 4.97 2.19 6.93 1.86l.19-.08c1.25-.41 1.33-.63.91-1.56-.4-.86-1.47-1.31-2.36-1-.01 0-.02.01-.03.01-.75.26-1.73.72-2.31-.25-.45-.47 1.51-.37 2.14-.39zm-2.83-2.04h0s-.16-.5.16-1.09h0l.17-.33c.15-.23.37-.45.68-.66 1.04-.68 1.72.51 1.96 1.05.08.18.05.39-.1.52-.18.16-.57.47-1.22.6h0s-1.49.39-1.65-.09zm12.19-6.6c.08-1.33.9-1.97 2.08-1.89 1.09.07 1.88.91 1.75 1.95-.15 1.19-1.06 1.47-2.06 1.4-1.03-.08-1.77-.56-1.77-1.46zm3.97 5.3c.01-.49.1-1.07.1-1.07h0c.29-1.88.05-1.91-2.19-1.88-.19 0 .05 0-.14 0-1.49.04-1.86.38-1.72 1.87.19 2.16.2 4.31-.08 6.45-.11.81.26 1.11.96 1.24 2.88.5 3.39.05 3.19-2.83l-.12-3.78zm18-2.77c-.9-.06-.99-.82-.76-1.48.16-.46.54-.85 1.08-1.03.75-.25.84-.63.72-1.07-.09-.4-.39-1.07-.5-1.3-.01-.02-.02-.05-.03-.07l-.01-.01c-.2-.35-.47-.29-.95-.26-2.31.15-3.81 1.67-3.88 3.96-.02.44.2 1-.31 1.28-1.31.7-.95 2.1-.45 2.64 1.04 1.14.68 2.35.79 3.41v1.12c.01 2.11.01 2.11 2.09 2.14l.71-.01c.89 0 1.27-.42 1.15-1.32l-.45-3.62c-.07-.62 0-1.19.8-1.18 1.09.01 1.03-.74 1-1.45-.03-.75.32-1.67-1-1.75zm19.34 2.4c0 .88.13 1.74-1.44 1.57-.85-.09-1.23.56-1.2 1.39l.15 3.09c.09.73-.12 1.08-.87 1.08l-.99.02c-1.82-.02-1.89-.11-1.93-1.89-.05-2.06.11-4.12-.22-6.18-.08-.5.14-1.12.5-1.28.5-.23 2.7-.89 3.24.37.33.75.55.17.76.06 2.12-1.13 2-.55 2 1.77zm28.56 4.48c-.23-1.73-.25-3.45 0-5.17.08-.57.07-1.72-.53-1.95-.85-.32-1.72-.65-2.5.05-.79.71-1.39.43-2.01.09-.72-.4-1.47-.44-2.17-.27-1.97.48-3.24 1.72-3.66 3.76-.4 1.97.01 3.75 1.43 5.16 1.09 1.08 2.92 1.69 4.46.53.39-.3.84-.63 1.32 0 .37.48.96.23 1.41.27 2.42-.05 2.55-.2 2.25-2.47zm-5.92-.41c-1.1-.02-1.9-.79-1.89-1.82.01-1.08.89-1.89 2.04-1.87 1.23.02 1.98.76 1.94 1.92-.05 1.11-.86 1.79-2.09 1.77z"/><use xlink:href="#F"/><use xlink:href="#E" x="128.36" y="0.01"/><path d="M139.73 12.58l-.03-.82v-.05l-.09-1.87c0-.34-.01-.67-.06-.99-.11-.83-.55-1.59-1.29-1.97-1.4-.73-2.79-.46-4.17.65-.26.21-.45.48-.79.09-1.41-1.59-3.01-1.37-4.69-.5-.27.14-.69.54-.86.21-.71-1.38-1.69-.15-2.57-.38-1.06-.28-1.38.44-1.19 1.38.38 1.86.12 3.72 0 5.59-.07 1.11.76 2.11 1.86 2.22 1.67.16 2.25-.17 2.09-1.47l-.29-3.78c-.01-.75.51-1.19 1.27-1.22.81-.03 1.03.51 1.03 1.2l.02 2.39c-.08 2.87-.08 2.82 2.85 2.76.98-.02 1.09-.45 1.01-1.2-.26-1.33-.06-2.67-.11-4.01a.87.87 0 0 1 .62-.86c1.14-.33 1.47.28 1.48 1.04l.06 2.38c-.31 2.97-.46 2.88 2.49 2.83 1.15-.02 1.43-.5 1.4-1.54l-.04-2.08zm31.61-6.1c-2.58-.36-5.07.97-5.74 3.91-.64 2.76 1.1 6.18 5.13 6.14.6-.01 1.19-.14 1.74-.38.01 0 .02-.01.02-.01 1.13-.48 2.1-1.32 2.61-2.45a5.28 5.28 0 0 0 .44-1.66c.29-2.72-1.45-5.16-4.2-5.55zm-.75 6.88c-1.12.01-2-.81-1.99-1.87 0-1.03.82-1.82 1.89-1.84 1.14-.02 1.99.78 1.98 1.88-.01 1.01-.84 1.82-1.88 1.83z"/><use xlink:href="#B" x="89.2" y="0.26"/><path d="M201.84 7.11c-.15-.13-.32-.24-.5-.32-1.11-.51-2.25-.44-3.38 0-.4.16-.68.33-1.15.08-.9-.48-1.78-.52-2.63-.2-.61.22-.99.83-.93 1.47l.21 2.56c.13 2.25-.2 4.49-.36 6.73-.09 1.24.23 1.76 1.59 1.71 2.33-.08 2.34 0 2.39-2.29.01-.66.06-1.21.93-.69 1.39.83 3.77-.05 4.68-1.17 1.89-2.3 1.48-5.92-.85-7.88zm-3.1 6.06c-.94-.02-1.67-.85-1.67-1.9 0-1.11.77-1.93 1.79-1.9 1 .03 1.62.8 1.58 1.97s-.67 1.85-1.7 1.83z"/><use xlink:href="#C" x="180.52" y="-0.04"/><use xlink:href="#F" x="52.47" y="0.02"/><use xlink:href="#E" x="180.83" y="0.03"/><use xlink:href="#B" x="130.84" y="0.2"/><path d="M230.02 12.69c-.17-.97.42-2.07-.79-2.89-.36-.24-.39-1.81-.04-2.09 1.26-.97.77-2.2.79-3.32.02-1.09.3-1.49 1.39-1.01.33.15.72.22 1.09.25 1.04.08 1.36.66 1.22 1.62-.17 1.16.05 1.96 1.51 1.78.59-.07 1.07.22.89.9-.2.78.32 2.14-.96 2.15-1.83.02-1.47 1.16-1.44 2.18.03 1.21.9 1.26 1.8 1.18.38-.03.84-.12.87.41.04.69.11 1.48-.46 1.98-1.16 1.01-3.88 1.04-4.88.31-1.3-.96-.84-2.25-.99-3.45z"/><use xlink:href="#F" x="77.29" y="0.14"/><use xlink:href="#E" x="205.65" y="0.15"/><use xlink:href="#B" x="156.14" y="0.2"/></g><path d="M259.05 15.32l.64.38s.61-.19.71.08.5-.9.5-.9l-1.08-.1-.77.54zm-1.66-8.76c-1.78.57-2.48 1.77-2.48 1.77l.54.25 1.45.96s2.27-3.55.49-2.98z" fill="#686868"/><g fill="#213c7d"><path d="M264.66 7.66c-.07-.34-.15-.71-.28-.93 0-.01 0-.01-.01-.02s-.02-.02-.02-.03c-.02-.03-.04-.05-.06-.07a.58.58 0 0 0-.25-.15c-.03-.01-.07-.03-.12-.03-.11-.02-.19-.03-.28-.03-.7-.05-1.08.15-1.08.15h0c-.23.1-.39.26-.36.52.03.24-.09.28-.24.24l-.39-.19h0c-.53-.24-.93-.38-1.24-.46-2.69-.78-4.03.44-4.03.44h0c-2.02 1.16-2.68 3.31-1.72 5.85.1.25.22.5.37.73 1.25 1.91 3.31 2.43 5.29 1.9 1.06 1.04-2.23 1-3.22.65-1.03-.36-1.4-.44-1.73.54-.26 1.38.51 1.84 1.72 1.94 1.31.11 2.62.19 3.94.06 1.86-.19 3.41-1.7 3.56-3.55.19-2.26-.1-3.93.16-6.1.06-.49.08-.98-.01-1.46zm-5.34 4.99c-.94-.01-1.67-.72-1.67-1.63 0-.95.77-1.64 1.79-1.62 1 .02 1.62.68 1.58 1.68-.04 1.01-.68 1.59-1.7 1.57zM125.19 7.94l-1.04-.82s.84-.8 3.1-.35"/><path d="M125.57 7.34l.14-.69s1.39-.2 1.71.25c.32.44-1.5.84-1.5.84l-.35-.4z"/></g><defs ><path id="B" d="M87.2 8.33c-.13-.94.29-1.35 1.09-1.47.87-.13 2.4-.87 2.74.41.29 1.09 1.12-.23 1.65-.47 2.34-1.06 4.42.2 4.45 2.73l.03 5.2c.04.99-.36 1.29-1.31 1.29-2.21.01-2.2.05-2.2-2.19l-.03-2.81c-.03-.78-.34-1.38-1.26-1.37-.91.01-1.4.5-1.42 1.39l-.01 3.8c.03.86-.32 1.2-1.15 1.15-.47-.02-.94-.01-1.41.01-.75.03-1.11-.26-1.08-1.07l.01-3.52"/><path id="C" d="M30.84 9.03c0 .88.13 1.74-1.44 1.57-.85-.09-1.23.56-1.2 1.39l.15 3.09c.09.73-.12 1.08-.87 1.08l-.99.02c-1.82-.02-1.89-.11-1.93-1.89-.05-2.06.11-4.12-.22-6.18-.08-.5.14-1.12.5-1.28.5-.23 2.7-.89 3.24.37.33.75.55.17.76.06 2.12-1.12 2-.54 2 1.77z"/><path id="D" d="M48.13 13.72c-.23-1.73-.25-3.45 0-5.17.08-.57.07-1.72-.53-1.95-.85-.32-1.72-.65-2.5.05-.79.71-1.39.43-2.01.09-.72-.4-1.47-.44-2.17-.27-1.97.48-3.24 1.72-3.66 3.76-.4 1.97 0 3.75 1.43 5.16 1.09 1.08 2.92 1.69 4.46.53.39-.3.84-.63 1.32 0 .37.48.96.23 1.41.27 2.43-.05 2.56-.2 2.25-2.47zm-5.91-.41c-1.1-.02-1.9-.79-1.89-1.82.01-1.08.89-1.89 2.04-1.87 1.23.02 1.98.76 1.94 1.92-.05 1.11-.86 1.79-2.09 1.77z"/><path id="E" d="M35.88 9.55c.01-.49.1-1.07.1-1.07h0c.29-1.88.05-1.91-2.19-1.88-.19 0 .05 0-.14 0-1.48.03-1.85.37-1.72 1.87.19 2.16.2 4.31-.08 6.45-.11.81.26 1.11.96 1.24 2.88.5 3.39.05 3.19-2.83l-.12-3.78z"/><path id="F" d="M160.28 4.25c.08-1.33.9-1.97 2.08-1.89 1.09.07 1.88.91 1.75 1.95-.15 1.19-1.06 1.47-2.06 1.4-1.04-.07-1.78-.56-1.77-1.46z"/></defs></svg>